# xmcd CD database file
#
# Track frame offsets:
#	150
#	18996
#	33276
#	52304
#	64787
#	79707
#	90410
#	105648
#	118449
#	132705
#	146898
#	168408
#	191019
#	207832
#	221041
#	241858
#
# Disc length: 3436 seconds
#
# Revision: 0
# Processed by: cddbd v1.5.2PL0 Copyright (c) Steve Scherf et al.
# Submitted via: CDex 1.51
#
DISCID=f00d6a10
DTITLE=Various Artist - Hope Street Christmas 2008
DYEAR=2008
DGENRE=Country
TTITLE0=Walt Mills/Christmas All Year Long
TTITLE1=Micki Farington/Christmas Is A Time Of Giving
TTITLE2=Bryan Hargiss/Watching My Flock By Night
TTITLE3=Gary R. Smith/Christmas In The Country
TTITLE4=Keith Caldwell/If Christ Was Never Born
TTITLE5=Grace Jacobsen/Christmas Time Is Here
TTITLE6=Billy Hale/Heaven Sent
TTITLE7=Benny Greenlee/Very First Christmas Day
TTITLE8=Cresswell and Family/What's Happened To America
TTITLE9=Sharon Joyner/Feliz Navidad
TTITLE10=Desert Reign/Christmas With Him
TTITLE11=Aven Grace/Any Place Warm
TTITLE12=Ken Byford/Beneath The Talmadge Bridge
TTITLE13=Gene Farington/The Spirit Of Christmas
TTITLE14=Leon Seiter/A Cold December Night
TTITLE15=Dr. Joe Price/Behold The Lamb Of God
EXTD=YEAR: 2008
EXTT0=
EXTT1=
EXTT2=
EXTT3=
EXTT4=
EXTT5=
EXTT6=
EXTT7=
EXTT8=
EXTT9=
EXTT10=
EXTT11=
EXTT12=
EXTT13=
EXTT14=
EXTT15=
PLAYORDER=
